<svg xmlns="http://www.w3.org/2000/svg" viewBox="0 0 1254 1254" width="1254" height="1254">
<path fill="#ffffff" fill-rule="evenodd" d="M 771 829 L 761 835 L 754 845 L 733 905 L 735 925 L 745 937 L 805 956 L 822 951 L 832 940 L 850 881 L 847 866 L 835 854 L 771 829 Z M 1002 791 L 985 793 L 972 803 L 923 917 L 925 932 L 935 945 L 1068 1001 L 1088 1000 L 1101 988 L 1151 871 L 1148 856 L 1138 843 L 1002 791 Z M 775 747 L 751 753 L 741 772 L 742 797 L 757 812 L 777 816 L 797 807 L 807 788 L 804 766 L 790 752 L 775 747 Z M 984 730 L 966 733 L 954 746 L 944 777 L 951 795 L 971 806 L 1006 813 L 1021 806 L 1034 784 L 1039 757 L 1030 745 L 984 730 Z M 828 641 L 813 645 L 802 658 L 787 702 L 790 718 L 804 730 L 896 759 L 912 756 L 926 742 L 941 695 L 935 680 L 922 670 L 828 641 Z M 1125 595 L 1105 603 L 1095 630 L 1104 651 L 1157 671 L 1176 667 L 1189 651 L 1197 624 L 1191 611 L 1175 603 L 1125 595 Z M 980 522 L 959 531 L 949 560 L 957 578 L 985 591 L 1007 584 L 1018 553 L 1010 535 L 980 522 Z M 942 460 L 930 464 L 921 477 L 905 526 L 910 542 L 935 556 L 960 557 L 973 550 L 991 500 L 987 482 L 942 460 Z M 867 275 L 846 281 L 836 300 L 801 422 L 809 441 L 941 480 L 955 474 L 973 423 L 1027 431 L 1044 424 L 1053 406 L 1058 378 L 1053 361 L 1037 350 L 867 275 Z M 1007 339 L 1019 348 L 1027 362 L 1026 384 L 1015 401 L 997 408 L 975 402 L 965 392 L 959 376 L 964 356 L 976 343 L 1007 339 Z M 881 320 L 903 325 L 914 336 L 919 354 L 913 374 L 899 386 L 878 389 L 861 381 L 850 366 L 849 346 L 861 327 L 881 320 Z M 1172 404 L 1158 407 L 1147 420 L 1136 455 L 1143 472 L 1162 482 L 1194 492 L 1211 484 L 1225 449 L 1221 428 L 1205 418 L 1172 404 Z M 926 348 L 943 362 L 948 383 L 940 402 L 924 413 L 903 412 L 887 400 L 881 383 L 886 361 L 900 350 L 926 348 Z M 609 218 L 413 250 L 375 200 L 360 195 L 328 197 L 303 208 L 272 234 L 258 258 L 254 276 L 236 282 L 209 300 L 145 388 L 125 430 L 101 504 L 80 598 L 70 677 L 67 817 L 77 896 L 93 971 L 109 1015 L 133 1058 L 162 1085 L 194 1098 L 233 1095 L 271 1075 L 300 1044 L 341 976 L 391 919 L 438 890 L 489 879 L 698 879 L 720 870 L 734 849 L 744 808 L 760 783 L 787 779 L 827 791 L 849 786 L 862 769 L 876 723 L 872 697 L 852 681 L 765 653 L 747 656 L 734 669 L 727 692 L 701 692 L 695 656 L 718 648 L 731 630 L 733 600 L 802 600 L 823 588 L 832 564 L 830 524 L 814 507 L 765 506 L 765 445 L 795 448 L 811 441 L 822 422 L 832 362 L 826 337 L 808 324 L 674 236 L 653 233 L 609 218 Z M 363 228 L 374 234 L 388 263 L 384 279 L 370 287 L 322 296 L 307 294 L 304 278 L 312 259 L 332 240 L 363 228 Z M 650 270 L 771 270 L 790 277 L 794 289 L 793 331 L 783 342 L 733 342 L 733 422 L 786 422 L 793 431 L 791 458 L 780 469 L 735 471 L 735 519 L 807 519 L 814 529 L 814 556 L 805 566 L 734 567 L 734 647 L 702 647 L 703 270 L 650 270 Z M 466 293 L 638 273 L 638 813 L 484 813 L 435 821 L 395 841 L 352 874 L 321 912 L 277 982 L 252 1018 L 219 1048 L 183 1058 L 152 1045 L 124 1010 L 106 957 L 91 875 L 86 774 L 93 657 L 111 549 L 136 453 L 168 387 L 235 298 L 275 284 L 294 306 L 292 317 L 226 337 L 196 369 L 157 421 L 133 463 L 111 530 L 94 627 L 83 733 L 84 835 L 93 912 L 109 980 L 127 1022 L 156 1056 L 183 1072 L 208 1073 L 242 1061 L 273 1036 L 302 999 L 354 915 L 399 866 L 451 837 L 497 827 L 639 827 L 658 819 L 664 805 L 664 270 L 466 293 Z M 1125 401 L 1109 407 L 1100 421 L 1086 473 L 1088 490 L 1101 503 L 1193 529 L 1212 525 L 1224 510 L 1239 455 L 1235 438 L 1221 426 L 1125 401 Z"/>
<path fill="#000000" fill-rule="evenodd" d="M 756 817 L 741 826 L 727 847 L 717 874 L 708 896 L 706 923 L 721 943 L 740 955 L 792 972 L 818 970 L 842 953 L 855 923 L 865 889 L 864 861 L 846 839 L 816 827 L 774 814 L 756 817 Z M 773 847 L 830 865 L 838 874 L 838 888 L 822 932 L 812 944 L 798 949 L 746 932 L 735 922 L 734 907 L 752 857 L 761 849 L 773 847 Z M 756 888 L 769 876 L 789 876 L 806 889 L 810 907 L 802 925 L 787 934 L 766 929 L 755 913 L 756 888 Z M 994 771 L 967 777 L 946 795 L 920 854 L 894 915 L 899 943 L 917 965 L 1062 1027 L 1097 1023 L 1122 999 L 1179 864 L 1171 834 L 1145 812 L 994 771 Z M 999 810 L 1134 861 L 1140 871 L 1088 989 L 1078 994 L 945 938 L 940 927 L 990 814 L 999 810 Z M 778 772 L 766 779 L 762 793 L 770 804 L 783 804 L 794 795 L 796 781 L 788 772 L 778 772 Z M 982 705 L 956 713 L 941 729 L 930 761 L 933 786 L 950 804 L 999 821 L 1024 815 L 1040 798 L 1050 766 L 1044 742 L 1029 726 L 982 705 Z M 985 737 L 1026 750 L 1031 759 L 1023 787 L 1014 798 L 971 784 L 962 775 L 970 746 L 985 737 Z M 989 757 L 1004 758 L 1014 771 L 1009 789 L 993 795 L 979 788 L 976 772 L 989 757 Z M 819 617 L 796 632 L 786 659 L 769 705 L 774 725 L 788 742 L 898 777 L 921 774 L 939 757 L 959 698 L 952 673 L 934 660 L 819 617 Z M 829 653 L 921 682 L 929 692 L 912 739 L 902 748 L 807 719 L 801 708 L 818 660 L 829 653 Z M 828 676 L 844 679 L 853 691 L 851 706 L 840 717 L 824 717 L 812 706 L 811 690 L 828 676 Z M 899 695 L 915 701 L 923 715 L 920 730 L 908 739 L 891 738 L 881 725 L 883 708 L 899 695 Z M 1125 570 L 1106 574 L 1089 586 L 1081 607 L 1072 636 L 1081 662 L 1101 678 L 1154 699 L 1185 695 L 1207 676 L 1222 629 L 1215 604 L 1196 589 L 1125 570 Z M 1129 609 L 1185 628 L 1190 639 L 1179 665 L 1167 670 L 1112 649 L 1106 638 L 1116 613 L 1129 609 Z M 1139 632 L 1153 629 L 1166 637 L 1170 650 L 1162 662 L 1148 665 L 1136 655 L 1135 643 L 1139 632 Z M 981 496 L 954 504 L 938 525 L 927 558 L 934 583 L 952 601 L 982 614 L 1010 611 L 1031 590 L 1043 553 L 1038 527 L 1020 510 L 981 496 Z M 984 532 L 1010 540 L 1017 551 L 1007 580 L 994 587 L 968 574 L 961 563 L 972 535 L 984 532 Z M 940 437 L 919 440 L 903 454 L 895 477 L 880 524 L 884 547 L 902 567 L 931 581 L 959 579 L 982 559 L 1003 499 L 996 471 L 976 455 L 940 437 Z M 938 471 L 973 490 L 976 502 L 960 546 L 949 553 L 924 542 L 917 528 L 933 478 L 938 471 Z M 826 252 L 849 253 L 1046 333 L 1062 348 L 1070 370 L 1066 406 L 1057 429 L 1037 444 L 1013 447 L 981 438 L 967 480 L 944 498 L 917 496 L 806 461 L 788 442 L 784 418 L 818 292 L 826 252 Z M 867 293 L 841 390 L 839 423 L 932 453 L 946 450 L 958 414 L 974 399 L 995 399 L 1020 410 L 1031 407 L 1040 394 L 1043 371 L 1036 358 L 1019 351 L 807 265 L 809 255 L 867 293 Z M 1003 364 L 984 360 L 976 371 L 980 385 L 994 392 L 1007 388 L 1012 375 L 1003 364 Z M 880 336 L 867 344 L 863 357 L 871 371 L 886 375 L 899 367 L 903 353 L 893 341 L 880 336 Z M 1167 380 L 1142 382 L 1120 400 L 1112 426 L 1101 459 L 1103 483 L 1120 504 L 1191 527 L 1218 526 L 1240 511 L 1254 455 L 1254 424 L 1235 402 L 1167 380 Z M 1173 420 L 1207 431 L 1216 441 L 1214 455 L 1203 485 L 1193 490 L 1156 478 L 1148 467 L 1158 430 L 1173 420 Z M 907 360 L 895 368 L 893 384 L 902 395 L 917 396 L 929 386 L 930 371 L 921 362 L 907 360 Z M 607 232 L 414 263 L 408 254 L 403 232 L 382 199 L 354 193 L 323 197 L 290 213 L 265 242 L 252 270 L 250 283 L 232 288 L 209 302 L 151 376 L 126 421 L 101 493 L 83 569 L 70 656 L 64 766 L 66 849 L 78 934 L 96 1006 L 120 1050 L 157 1085 L 190 1099 L 228 1097 L 262 1083 L 292 1056 L 326 1010 L 358 955 L 397 908 L 442 882 L 492 873 L 699 873 L 716 866 L 725 852 L 737 810 L 754 791 L 773 791 L 813 804 L 837 800 L 853 784 L 868 738 L 865 714 L 852 698 L 757 667 L 741 671 L 727 704 L 700 704 L 697 674 L 720 667 L 739 644 L 741 611 L 806 610 L 831 598 L 843 573 L 844 531 L 834 509 L 814 495 L 773 496 L 772 460 L 799 461 L 820 448 L 833 426 L 843 362 L 838 338 L 824 317 L 677 241 L 641 232 L 607 232 Z M 348 213 L 370 217 L 386 246 L 383 269 L 365 278 L 318 288 L 308 285 L 309 268 L 331 236 L 348 213 Z M 652 253 L 775 253 L 802 265 L 812 290 L 809 326 L 793 352 L 742 352 L 742 419 L 788 419 L 812 433 L 821 456 L 812 483 L 792 495 L 742 495 L 742 512 L 810 513 L 833 527 L 841 555 L 835 584 L 814 600 L 742 600 L 742 652 L 708 652 L 706 253 L 652 253 Z M 275 292 L 647 252 L 649 813 L 488 813 L 435 819 L 383 844 L 342 886 L 306 938 L 274 994 L 243 1031 L 214 1049 L 185 1052 L 157 1037 L 136 1009 L 119 956 L 104 870 L 101 773 L 108 665 L 123 560 L 147 470 L 177 406 L 238 323 L 275 292 Z M 510 599 L 487 610 L 462 642 L 449 675 L 451 705 L 466 734 L 490 754 L 529 765 L 562 756 L 591 734 L 611 702 L 614 670 L 603 638 L 580 614 L 548 599 L 510 599 Z M 529 631 L 558 636 L 581 656 L 589 683 L 583 706 L 562 728 L 537 737 L 508 731 L 486 710 L 477 683 L 482 658 L 500 638 L 529 631 Z M 341 394 L 326 401 L 322 416 L 323 463 L 336 476 L 357 483 L 333 506 L 327 521 L 328 602 L 341 615 L 392 615 L 407 609 L 430 585 L 453 610 L 470 616 L 513 615 L 526 606 L 530 590 L 529 539 L 521 525 L 490 495 L 523 465 L 529 452 L 529 410 L 519 398 L 503 395 L 464 395 L 447 402 L 430 427 L 404 400 L 391 395 L 341 394 Z M 350 422 L 386 422 L 416 451 L 416 479 L 391 506 L 350 506 L 350 422 Z M 466 423 L 502 423 L 502 451 L 472 478 L 444 478 L 444 450 L 466 423 Z M 430 503 L 457 527 L 501 527 L 501 588 L 471 588 L 444 557 L 444 530 L 430 503 Z M 416 505 L 416 556 L 387 588 L 355 588 L 355 529 L 389 529 L 416 505 Z M 1170 421 L 1159 429 L 1156 445 L 1165 457 L 1179 460 L 1193 452 L 1195 437 L 1186 425 L 1170 421 Z"/>
<path fill="#0d6bff" fill-rule="evenodd" d="M 773 847 L 830 865 L 838 874 L 838 888 L 822 932 L 812 944 L 798 949 L 746 932 L 735 922 L 734 907 L 752 857 L 761 849 L 773 847 Z M 999 810 L 1134 861 L 1140 871 L 1088 989 L 1078 994 L 945 938 L 940 927 L 990 814 L 999 810 Z M 985 737 L 1026 750 L 1031 759 L 1023 787 L 1014 798 L 971 784 L 962 775 L 970 746 L 985 737 Z M 829 653 L 921 682 L 929 692 L 912 739 L 902 748 L 807 719 L 801 708 L 818 660 L 829 653 Z M 1129 609 L 1185 628 L 1190 639 L 1179 665 L 1167 670 L 1112 649 L 1106 638 L 1116 613 L 1129 609 Z M 984 532 L 1010 540 L 1017 551 L 1007 580 L 994 587 L 968 574 L 961 563 L 972 535 L 984 532 Z M 938 471 L 973 490 L 976 502 L 960 546 L 949 553 L 924 542 L 917 528 L 933 478 L 938 471 Z M 867 293 L 841 390 L 839 423 L 932 453 L 946 450 L 958 414 L 974 399 L 995 399 L 1020 410 L 1031 407 L 1040 394 L 1043 371 L 1036 358 L 1019 351 L 867 293 Z M 1173 420 L 1207 431 L 1216 441 L 1214 455 L 1203 485 L 1193 490 L 1156 478 L 1148 467 L 1158 430 L 1173 420 Z M 652 253 L 775 253 L 802 265 L 812 290 L 809 326 L 793 352 L 742 352 L 742 419 L 788 419 L 812 433 L 821 456 L 812 483 L 792 495 L 742 495 L 742 512 L 810 513 L 833 527 L 841 555 L 835 584 L 814 600 L 742 600 L 742 652 L 708 652 L 706 253 L 652 253 Z"/>
</svg>