<svg xmlns="http://www.w3.org/2000/svg" viewBox="0 0 1254 1254" width="1254" height="1254" role="img" aria-label="PLA4Y logo">
<path fill="#ffffff" fill-rule="evenodd" d="M 769 830 L 757 840 L 734 902 L 734 922 L 739 931 L 753 941 L 804 959 L 825 959 L 838 950 L 845 937 L 864 883 L 862 864 L 854 853 L 843 847 L 790 828 Z M 777 842 L 784 841 L 840 861 L 850 871 L 850 882 L 830 937 L 820 946 L 813 947 L 758 928 L 747 917 L 747 908 L 767 851 Z M 537 641 L 520 645 L 505 657 L 496 677 L 496 694 L 501 707 L 513 720 L 528 727 L 545 728 L 560 723 L 572 713 L 580 699 L 582 679 L 576 662 L 564 649 L 552 643 Z M 531 616 L 504 625 L 483 644 L 472 666 L 470 695 L 480 722 L 498 741 L 522 752 L 550 753 L 574 744 L 594 726 L 605 704 L 607 676 L 599 652 L 579 629 L 557 618 Z M 527 625 L 550 625 L 573 635 L 590 653 L 598 674 L 598 697 L 587 721 L 568 738 L 548 745 L 524 744 L 504 735 L 485 714 L 479 697 L 479 673 L 487 653 L 504 635 Z M 366 546 L 345 568 L 345 611 L 388 612 L 390 568 Z M 400 512 L 422 536 L 464 535 L 463 489 L 423 489 Z M 270 491 L 271 536 L 313 536 L 335 514 L 312 489 Z M 390 416 L 345 417 L 345 459 L 367 481 L 391 458 Z M 1105 393 L 1091 404 L 1086 413 L 1059 490 L 1060 510 L 1067 522 L 1080 531 L 1157 558 L 1180 557 L 1195 546 L 1201 535 L 1227 461 L 1228 446 L 1225 435 L 1213 421 L 1129 391 Z M 1112 406 L 1125 405 L 1198 430 L 1213 444 L 1214 454 L 1188 529 L 1174 544 L 1164 545 L 1081 515 L 1074 505 L 1073 494 L 1100 418 Z M 638 273 L 289 339 L 277 346 L 264 359 L 175 485 L 163 511 L 150 552 L 127 650 L 113 756 L 110 857 L 117 918 L 133 976 L 154 1018 L 173 1040 L 187 1050 L 209 1057 L 224 1056 L 243 1049 L 262 1035 L 298 993 L 365 881 L 388 856 L 421 833 L 451 822 L 475 818 L 631 817 L 637 813 L 641 794 L 641 277 Z M 531 596 L 558 598 L 592 615 L 607 630 L 618 647 L 627 681 L 624 709 L 607 741 L 584 761 L 567 769 L 549 773 L 513 770 L 483 754 L 461 728 L 453 709 L 450 692 L 452 665 L 470 629 L 496 607 Z M 363 524 L 374 525 L 409 563 L 409 620 L 398 631 L 335 631 L 325 620 L 326 561 Z M 378 509 L 417 470 L 474 470 L 483 480 L 483 545 L 472 556 L 415 555 L 380 521 Z M 251 480 L 263 469 L 319 470 L 355 505 L 356 519 L 320 555 L 262 556 L 253 549 L 250 542 Z M 335 397 L 398 396 L 410 406 L 409 467 L 372 502 L 359 500 L 325 463 L 325 408 Z M 477 241 L 471 233 L 464 233 L 345 268 L 338 273 L 317 301 L 317 309 L 326 312 L 430 293 L 443 280 L 480 262 L 481 252 Z M 144 466 L 130 496 L 114 547 L 99 606 L 87 674 L 75 800 L 76 881 L 89 955 L 99 987 L 116 1024 L 131 1047 L 152 1069 L 178 1085 L 197 1091 L 223 1092 L 238 1089 L 265 1077 L 285 1062 L 310 1036 L 333 1005 L 393 903 L 413 881 L 429 869 L 457 857 L 488 852 L 708 851 L 718 846 L 728 834 L 739 800 L 895 855 L 913 855 L 896 906 L 896 922 L 901 934 L 915 946 L 1070 1000 L 1085 1001 L 1097 997 L 1108 987 L 1163 834 L 1162 812 L 1157 803 L 1143 792 L 989 739 L 968 740 L 982 695 L 985 695 L 990 706 L 997 712 L 1040 727 L 1053 727 L 1064 722 L 1073 710 L 1082 685 L 1097 696 L 1171 721 L 1186 720 L 1195 716 L 1206 704 L 1232 629 L 1230 610 L 1216 593 L 1142 567 L 1126 566 L 1113 571 L 1103 581 L 1079 647 L 1067 639 L 1033 627 L 1016 627 L 1006 632 L 999 640 L 985 678 L 978 664 L 964 653 L 844 612 L 854 596 L 856 587 L 856 508 L 846 484 L 948 518 L 929 568 L 930 586 L 942 601 L 988 617 L 1003 617 L 1017 609 L 1036 561 L 1037 545 L 1034 536 L 1026 527 L 1002 516 L 1010 505 L 1062 351 L 1063 336 L 1055 317 L 1041 307 L 888 256 L 863 258 L 851 267 L 844 279 L 793 431 L 793 447 L 798 459 L 817 475 L 751 476 L 749 382 L 784 377 L 797 365 L 802 352 L 802 261 L 795 246 L 784 237 L 775 234 L 644 234 L 518 260 L 513 235 L 500 211 L 483 199 L 459 197 L 330 235 L 318 242 L 291 274 L 283 288 L 280 304 L 259 314 L 234 338 Z M 973 753 L 986 753 L 1136 805 L 1149 818 L 1149 830 L 1099 974 L 1086 986 L 1076 987 L 923 934 L 910 920 L 910 909 L 960 766 Z M 1018 641 L 1028 640 L 1062 652 L 1071 661 L 1072 669 L 1060 704 L 1050 714 L 1008 702 L 999 694 L 998 684 L 1010 650 Z M 778 618 L 732 757 L 709 749 L 708 684 L 730 682 L 745 670 L 750 657 L 751 618 Z M 799 619 L 814 617 L 958 666 L 968 675 L 970 689 L 922 829 L 915 838 L 900 842 L 754 792 L 745 784 L 742 770 L 789 631 Z M 1125 581 L 1136 580 L 1206 604 L 1217 615 L 1218 627 L 1195 694 L 1181 707 L 1173 707 L 1100 682 L 1091 672 L 1090 660 L 1116 588 Z M 967 523 L 1011 535 L 1022 544 L 1023 555 L 1010 594 L 1001 603 L 994 604 L 952 590 L 943 580 L 942 574 L 956 533 Z M 871 271 L 883 270 L 1033 320 L 1046 331 L 1046 352 L 998 496 L 986 510 L 971 511 L 824 461 L 815 456 L 808 446 L 807 437 L 858 284 Z M 781 254 L 787 264 L 787 351 L 774 365 L 735 367 L 735 489 L 826 491 L 835 496 L 841 506 L 841 589 L 839 594 L 827 603 L 738 603 L 736 655 L 733 662 L 722 669 L 694 670 L 693 757 L 722 768 L 729 779 L 714 829 L 702 837 L 486 837 L 458 841 L 434 849 L 408 865 L 385 888 L 373 904 L 315 1004 L 291 1034 L 264 1059 L 232 1075 L 204 1077 L 184 1071 L 162 1057 L 138 1030 L 120 998 L 108 966 L 97 922 L 90 866 L 90 797 L 97 713 L 115 606 L 147 496 L 177 445 L 243 353 L 266 329 L 277 322 L 298 316 L 298 293 L 323 259 L 332 252 L 465 212 L 478 214 L 490 224 L 501 251 L 500 265 L 495 274 L 478 284 L 652 249 L 770 249 Z"/>
<path fill="#000000" fill-rule="evenodd" d="M 1050 893 L 1033 905 L 1030 927 L 1043 943 L 1053 946 L 1064 945 L 1080 932 L 1083 922 L 1082 911 L 1070 896 Z M 1053 902 L 1063 903 L 1073 915 L 1071 928 L 1061 936 L 1049 935 L 1039 922 L 1041 911 Z M 805 873 L 790 874 L 778 888 L 777 896 L 781 907 L 793 915 L 809 913 L 816 907 L 820 898 L 817 882 Z M 796 882 L 806 884 L 811 891 L 810 899 L 802 906 L 795 906 L 787 899 L 788 888 Z M 973 866 L 963 870 L 954 880 L 952 899 L 961 913 L 971 918 L 982 919 L 1000 909 L 1005 898 L 1005 887 L 1000 876 L 992 869 Z M 976 875 L 988 878 L 996 890 L 992 903 L 983 909 L 971 908 L 961 895 L 963 884 Z M 776 844 L 768 853 L 749 907 L 749 918 L 757 926 L 812 945 L 821 944 L 829 936 L 849 880 L 848 870 L 843 864 L 785 843 Z M 783 856 L 832 872 L 836 876 L 815 932 L 762 913 L 778 862 Z M 1078 819 L 1060 829 L 1055 839 L 1055 852 L 1066 868 L 1086 872 L 1102 863 L 1107 854 L 1108 843 L 1104 831 L 1097 824 Z M 1078 829 L 1090 831 L 1098 842 L 1095 856 L 1083 863 L 1072 860 L 1064 848 L 1068 835 Z M 1002 792 L 988 797 L 980 805 L 977 824 L 981 834 L 990 842 L 1009 845 L 1025 835 L 1030 823 L 1030 814 L 1026 804 L 1019 797 Z M 1000 802 L 1010 803 L 1020 814 L 1019 826 L 1006 836 L 994 833 L 987 824 L 989 810 Z M 678 775 L 667 783 L 665 799 L 673 809 L 688 811 L 698 803 L 701 790 L 691 776 Z M 680 784 L 686 784 L 692 791 L 686 802 L 680 802 L 674 797 L 674 790 Z M 967 758 L 962 765 L 912 908 L 913 923 L 923 932 L 1075 985 L 1089 983 L 1098 972 L 1148 828 L 1145 814 L 1137 807 L 987 755 L 977 754 Z M 978 770 L 987 770 L 1119 816 L 1132 823 L 1082 969 L 1076 970 L 928 917 L 927 911 L 974 775 Z M 872 752 L 857 766 L 857 787 L 862 795 L 871 801 L 892 801 L 906 786 L 906 767 L 893 753 Z M 878 760 L 891 763 L 898 774 L 896 785 L 886 793 L 873 791 L 865 781 L 866 770 Z M 802 726 L 792 730 L 785 737 L 781 756 L 790 772 L 799 777 L 811 778 L 827 769 L 832 760 L 833 748 L 823 731 L 812 726 Z M 802 736 L 816 738 L 823 747 L 821 761 L 812 768 L 798 766 L 791 757 L 793 743 Z M 899 680 L 883 691 L 879 709 L 883 720 L 890 727 L 899 731 L 911 731 L 927 720 L 931 710 L 930 697 L 917 682 Z M 902 689 L 913 691 L 921 701 L 920 713 L 909 722 L 898 721 L 889 711 L 891 697 Z M 825 655 L 813 661 L 807 669 L 805 686 L 809 695 L 819 704 L 840 705 L 853 694 L 857 682 L 856 673 L 844 658 Z M 825 665 L 837 665 L 846 674 L 846 687 L 837 696 L 827 697 L 815 686 L 815 675 Z M 1017 643 L 1013 647 L 1000 683 L 1002 696 L 1043 712 L 1053 711 L 1058 705 L 1070 670 L 1068 658 L 1029 642 Z M 1025 654 L 1055 663 L 1058 667 L 1045 700 L 1012 687 Z M 531 626 L 508 634 L 493 647 L 481 671 L 480 693 L 488 716 L 500 730 L 517 740 L 542 744 L 570 735 L 587 719 L 596 698 L 597 677 L 589 654 L 575 638 L 556 628 Z M 532 640 L 551 641 L 565 648 L 579 664 L 584 683 L 582 698 L 572 715 L 561 724 L 543 730 L 525 728 L 513 722 L 500 708 L 494 692 L 495 673 L 501 660 L 517 645 Z M 797 622 L 791 630 L 744 770 L 746 783 L 756 791 L 899 840 L 914 837 L 920 830 L 968 690 L 967 676 L 959 668 L 808 618 Z M 806 635 L 812 633 L 947 679 L 953 684 L 910 816 L 904 825 L 760 776 L 759 770 Z M 1148 617 L 1133 627 L 1128 647 L 1137 663 L 1149 669 L 1158 669 L 1174 660 L 1179 651 L 1180 638 L 1169 621 L 1160 617 Z M 1153 626 L 1162 628 L 1170 638 L 1168 652 L 1159 659 L 1145 657 L 1138 648 L 1140 634 Z M 528 598 L 499 607 L 471 630 L 454 664 L 452 696 L 461 725 L 484 753 L 512 768 L 551 771 L 579 762 L 607 739 L 623 707 L 625 677 L 621 658 L 613 641 L 590 615 L 559 600 Z M 535 614 L 562 618 L 588 635 L 604 659 L 609 680 L 606 706 L 591 732 L 572 747 L 548 755 L 523 754 L 497 742 L 476 718 L 468 692 L 472 661 L 487 637 L 513 619 Z M 1124 583 L 1115 593 L 1091 663 L 1093 673 L 1102 681 L 1172 705 L 1186 703 L 1193 695 L 1216 629 L 1214 613 L 1204 605 L 1137 582 Z M 1132 596 L 1191 615 L 1202 623 L 1181 687 L 1176 691 L 1115 671 L 1106 664 L 1127 601 Z M 363 526 L 331 556 L 327 563 L 327 621 L 331 627 L 338 630 L 396 630 L 404 626 L 408 617 L 407 562 L 377 529 Z M 367 544 L 391 567 L 389 613 L 343 611 L 343 568 Z M 964 526 L 957 535 L 944 573 L 946 583 L 951 588 L 992 602 L 1002 601 L 1009 592 L 1022 553 L 1019 542 L 975 525 Z M 972 538 L 1001 546 L 1008 551 L 994 589 L 965 580 L 958 575 Z M 774 523 L 763 527 L 757 533 L 753 542 L 753 554 L 763 568 L 781 572 L 797 562 L 801 554 L 801 542 L 792 528 Z M 777 532 L 784 534 L 792 546 L 790 555 L 779 563 L 767 559 L 762 551 L 764 540 Z M 380 508 L 381 520 L 417 554 L 473 554 L 481 546 L 482 484 L 474 472 L 416 472 Z M 398 512 L 423 487 L 462 487 L 466 491 L 466 534 L 463 538 L 422 538 Z M 253 479 L 252 544 L 262 554 L 318 554 L 355 518 L 354 506 L 317 471 L 262 471 Z M 268 491 L 272 487 L 312 487 L 337 514 L 312 538 L 271 538 L 268 534 Z M 681 452 L 670 460 L 667 478 L 676 490 L 690 493 L 704 484 L 707 468 L 697 454 Z M 684 461 L 693 463 L 698 470 L 696 479 L 689 484 L 682 483 L 676 476 L 677 467 Z M 1138 447 L 1128 451 L 1120 459 L 1116 469 L 1116 480 L 1124 495 L 1135 501 L 1148 502 L 1165 492 L 1171 479 L 1171 470 L 1160 452 L 1149 447 Z M 1140 457 L 1152 459 L 1161 471 L 1159 483 L 1147 492 L 1133 489 L 1126 480 L 1129 464 Z M 948 415 L 932 425 L 927 437 L 927 447 L 931 457 L 938 464 L 956 469 L 968 465 L 976 458 L 981 438 L 977 427 L 969 419 L 960 415 Z M 949 425 L 963 427 L 971 438 L 968 452 L 958 459 L 947 458 L 937 447 L 939 433 Z M 1111 408 L 1103 415 L 1075 493 L 1076 506 L 1085 516 L 1163 543 L 1175 542 L 1186 530 L 1212 455 L 1211 443 L 1199 432 L 1126 407 Z M 1119 422 L 1193 446 L 1196 450 L 1173 522 L 1167 528 L 1095 504 L 1090 498 L 1114 427 Z M 334 399 L 327 408 L 327 464 L 360 499 L 373 500 L 406 469 L 409 463 L 408 405 L 399 398 Z M 346 414 L 390 414 L 393 417 L 393 457 L 369 482 L 366 482 L 343 458 L 343 417 Z M 872 389 L 861 393 L 853 401 L 849 421 L 853 431 L 861 439 L 881 443 L 897 433 L 903 415 L 899 402 L 892 394 Z M 872 399 L 886 402 L 893 413 L 890 426 L 881 433 L 867 431 L 859 421 L 861 407 Z M 972 339 L 956 350 L 952 359 L 952 372 L 956 381 L 966 390 L 986 392 L 1001 381 L 1005 372 L 1005 359 L 1001 350 L 992 342 Z M 972 349 L 984 349 L 995 360 L 995 371 L 985 382 L 972 382 L 962 372 L 962 360 Z M 895 313 L 883 319 L 877 326 L 874 346 L 886 363 L 905 367 L 914 364 L 923 356 L 928 342 L 927 332 L 916 317 L 906 313 Z M 900 322 L 910 325 L 918 337 L 915 350 L 905 357 L 892 355 L 884 345 L 886 331 L 893 324 Z M 711 283 L 701 286 L 693 293 L 689 302 L 689 315 L 699 329 L 717 333 L 727 329 L 735 321 L 738 304 L 734 294 L 727 287 Z M 709 293 L 721 295 L 728 303 L 728 313 L 719 323 L 708 323 L 699 315 L 698 304 Z M 870 273 L 860 283 L 809 436 L 810 447 L 823 459 L 974 510 L 984 509 L 996 497 L 1045 350 L 1046 335 L 1036 323 L 884 272 Z M 880 287 L 1024 335 L 1031 342 L 983 488 L 978 494 L 831 446 L 825 440 L 873 292 Z M 780 255 L 772 251 L 649 251 L 475 286 L 496 270 L 499 249 L 491 228 L 482 218 L 463 214 L 333 253 L 323 261 L 301 291 L 298 298 L 300 316 L 273 326 L 247 350 L 178 446 L 150 493 L 133 543 L 117 605 L 98 720 L 92 792 L 91 848 L 99 923 L 120 994 L 139 1029 L 164 1057 L 194 1073 L 224 1075 L 244 1069 L 267 1055 L 291 1032 L 316 1000 L 367 911 L 385 886 L 411 861 L 435 847 L 460 839 L 491 835 L 703 835 L 713 828 L 727 778 L 721 769 L 692 758 L 692 670 L 695 667 L 723 667 L 733 659 L 734 605 L 737 602 L 824 602 L 835 597 L 840 586 L 840 509 L 833 496 L 815 492 L 736 492 L 733 489 L 733 367 L 736 364 L 775 363 L 785 352 L 786 267 Z M 658 751 L 674 751 L 677 754 L 678 766 L 682 770 L 713 781 L 700 819 L 657 818 Z M 658 662 L 674 662 L 677 665 L 677 738 L 674 741 L 659 741 L 656 738 Z M 658 586 L 715 586 L 719 590 L 719 649 L 716 652 L 659 652 L 656 649 Z M 728 512 L 732 508 L 821 509 L 825 515 L 824 583 L 821 586 L 730 585 Z M 658 509 L 713 508 L 717 511 L 716 575 L 659 576 L 656 573 Z M 658 436 L 715 436 L 718 439 L 718 496 L 715 499 L 659 499 L 656 496 Z M 659 358 L 715 358 L 718 361 L 718 423 L 715 426 L 659 426 L 656 423 L 656 361 Z M 638 271 L 642 275 L 642 803 L 639 812 L 629 819 L 472 820 L 443 826 L 413 839 L 391 855 L 369 878 L 348 909 L 304 987 L 269 1030 L 253 1044 L 231 1056 L 205 1058 L 186 1051 L 167 1036 L 153 1019 L 132 978 L 115 916 L 108 853 L 112 747 L 127 640 L 151 543 L 164 504 L 174 484 L 263 358 L 276 345 L 290 337 Z M 656 271 L 661 267 L 767 268 L 770 272 L 770 344 L 766 348 L 658 347 Z M 478 239 L 483 253 L 481 263 L 443 282 L 432 294 L 324 314 L 315 308 L 315 302 L 334 276 L 346 266 L 465 231 L 472 232 Z"/>
<path fill="#0d6bff" fill-rule="evenodd" d="M 1055 903 L 1043 910 L 1040 921 L 1048 933 L 1059 935 L 1069 929 L 1072 916 L 1067 907 Z M 797 883 L 789 889 L 788 898 L 792 903 L 800 905 L 808 900 L 810 891 L 806 885 Z M 973 877 L 965 883 L 963 897 L 972 907 L 985 907 L 994 897 L 994 887 L 986 878 Z M 784 857 L 780 860 L 763 912 L 814 931 L 835 877 L 831 873 Z M 796 871 L 812 875 L 821 888 L 818 906 L 811 913 L 801 917 L 787 914 L 779 906 L 776 898 L 781 880 Z M 1075 831 L 1066 841 L 1066 851 L 1071 858 L 1086 861 L 1096 852 L 1096 840 L 1087 831 Z M 1006 803 L 994 806 L 988 815 L 991 829 L 1003 835 L 1014 831 L 1019 822 L 1016 809 Z M 681 785 L 676 789 L 675 796 L 678 800 L 685 801 L 691 792 L 687 786 Z M 981 770 L 975 776 L 928 914 L 938 921 L 1079 969 L 1085 961 L 1131 824 L 1121 818 Z M 1053 891 L 1072 896 L 1080 904 L 1084 915 L 1080 934 L 1071 943 L 1061 947 L 1041 943 L 1031 932 L 1028 923 L 1029 912 L 1034 902 L 1042 895 Z M 972 865 L 985 865 L 994 869 L 1006 886 L 1006 899 L 1002 908 L 984 920 L 973 920 L 962 915 L 955 908 L 950 895 L 951 884 L 956 875 Z M 1077 818 L 1090 819 L 1099 824 L 1109 841 L 1109 850 L 1104 862 L 1087 873 L 1075 873 L 1066 869 L 1054 853 L 1056 833 L 1065 823 Z M 1000 791 L 1011 792 L 1021 797 L 1031 813 L 1028 832 L 1019 842 L 1010 846 L 997 846 L 988 842 L 979 833 L 976 825 L 976 812 L 980 803 L 989 795 Z M 880 761 L 870 766 L 866 780 L 873 790 L 885 792 L 894 786 L 897 775 L 889 763 Z M 659 752 L 657 816 L 700 818 L 712 782 L 680 770 L 674 752 Z M 682 773 L 693 776 L 702 789 L 698 805 L 685 813 L 671 809 L 663 796 L 667 781 Z M 803 737 L 795 742 L 792 756 L 800 766 L 811 767 L 820 760 L 822 748 L 814 738 Z M 904 690 L 892 697 L 890 710 L 897 719 L 907 721 L 918 714 L 920 702 L 913 692 Z M 830 665 L 818 672 L 816 685 L 823 694 L 832 696 L 843 690 L 846 677 L 840 668 Z M 659 663 L 657 738 L 673 740 L 676 737 L 676 666 L 673 663 Z M 1025 655 L 1014 688 L 1046 698 L 1056 665 Z M 810 634 L 804 641 L 760 773 L 765 778 L 903 824 L 909 815 L 952 685 L 944 679 Z M 875 750 L 888 750 L 897 754 L 908 769 L 909 779 L 905 791 L 896 800 L 886 804 L 873 803 L 864 798 L 854 781 L 858 762 Z M 795 727 L 816 726 L 822 729 L 833 743 L 832 763 L 816 778 L 796 777 L 781 761 L 782 740 Z M 902 678 L 913 679 L 922 684 L 932 700 L 932 711 L 927 722 L 919 729 L 908 733 L 898 732 L 887 726 L 878 710 L 879 697 L 884 688 Z M 824 654 L 837 654 L 846 658 L 857 672 L 858 683 L 855 693 L 838 707 L 830 708 L 817 704 L 809 697 L 804 687 L 807 667 L 814 659 Z M 1149 628 L 1142 633 L 1139 647 L 1147 657 L 1158 658 L 1166 653 L 1169 638 L 1163 630 Z M 1133 597 L 1128 601 L 1108 665 L 1113 669 L 1177 689 L 1193 648 L 1200 621 Z M 1147 616 L 1168 619 L 1177 628 L 1181 637 L 1178 656 L 1163 669 L 1145 669 L 1138 665 L 1128 652 L 1127 638 L 1131 628 Z M 659 587 L 657 649 L 716 651 L 717 589 Z M 972 539 L 959 575 L 993 588 L 996 586 L 1007 551 Z M 773 534 L 766 539 L 763 549 L 770 560 L 781 561 L 788 556 L 790 543 L 783 535 Z M 730 511 L 729 582 L 732 585 L 823 583 L 821 510 Z M 766 524 L 785 523 L 801 538 L 801 557 L 796 565 L 786 572 L 768 572 L 753 558 L 753 538 Z M 659 510 L 657 573 L 714 575 L 716 511 Z M 686 462 L 679 466 L 677 475 L 681 481 L 691 482 L 696 476 L 696 468 Z M 1141 458 L 1129 466 L 1127 479 L 1134 488 L 1145 491 L 1157 484 L 1160 473 L 1153 461 Z M 659 437 L 657 496 L 715 497 L 716 438 Z M 686 450 L 699 454 L 708 467 L 705 484 L 691 494 L 682 494 L 674 490 L 665 475 L 668 461 L 676 453 Z M 950 426 L 940 433 L 938 446 L 944 455 L 957 458 L 968 450 L 970 439 L 961 427 Z M 1120 423 L 1112 436 L 1092 500 L 1168 526 L 1177 507 L 1195 450 L 1185 444 Z M 1137 446 L 1150 446 L 1159 450 L 1168 459 L 1172 469 L 1172 480 L 1167 491 L 1159 499 L 1149 503 L 1137 503 L 1121 493 L 1115 481 L 1114 473 L 1118 460 L 1126 451 Z M 873 400 L 864 405 L 860 419 L 869 431 L 880 432 L 888 427 L 892 414 L 887 404 Z M 659 359 L 657 423 L 716 424 L 717 362 L 714 359 Z M 973 350 L 964 358 L 963 371 L 969 379 L 981 382 L 992 375 L 994 360 L 986 351 Z M 897 324 L 887 331 L 885 344 L 894 355 L 905 356 L 913 351 L 917 338 L 911 327 Z M 707 295 L 700 302 L 700 314 L 709 322 L 718 322 L 726 315 L 727 304 L 719 295 Z M 878 289 L 874 293 L 826 440 L 829 444 L 978 493 L 1029 340 Z M 947 414 L 968 417 L 977 425 L 982 436 L 982 447 L 977 458 L 967 467 L 958 470 L 939 466 L 932 460 L 926 448 L 926 435 L 930 426 Z M 871 388 L 891 392 L 900 401 L 904 412 L 903 423 L 897 435 L 882 444 L 864 442 L 854 434 L 848 422 L 848 410 L 853 399 Z M 976 337 L 994 342 L 1004 353 L 1007 363 L 1006 373 L 1000 384 L 982 394 L 971 393 L 960 387 L 954 380 L 950 368 L 956 348 L 964 341 Z M 894 312 L 913 314 L 923 322 L 928 331 L 927 351 L 910 367 L 895 368 L 887 365 L 878 357 L 873 347 L 875 327 L 885 316 Z M 657 271 L 659 346 L 768 345 L 769 272 L 766 269 Z M 709 282 L 726 285 L 734 292 L 739 303 L 736 321 L 729 329 L 719 334 L 700 331 L 688 316 L 687 306 L 691 294 L 699 286 Z"/>
</svg>